<svg width="286" height="318" viewBox="0 0 286 318" fill="none" xmlns="http://www.w3.org/2000/svg">
<path opacity="0.49" d="M0.733042 124.425C20.9288 124.43 20.937 159.814 41.1328 159.819C61.3286 159.823 61.3204 124.439 81.5162 124.443C101.712 124.448 101.72 159.832 121.916 159.837C142.112 159.842 142.103 124.457 162.258 124.42C182.453 124.425 182.462 159.809 202.657 159.814C222.853 159.818 222.845 124.434 243.083 124.397C263.279 124.401 263.286 159.786 283.524 159.832" stroke="#BEF264" stroke-width="3" stroke-miterlimit="10" stroke-linecap="round" stroke-linejoin="round"/>
<path opacity="0.49" d="M0.733042 157.425C20.9288 157.43 20.937 192.814 41.1328 192.819C61.3286 192.823 61.3204 157.439 81.5162 157.443C101.712 157.448 101.72 192.832 121.916 192.837C142.112 192.842 142.103 157.457 162.258 157.42C182.453 157.425 182.462 192.809 202.657 192.814C222.853 192.818 222.845 157.434 243.083 157.397C263.279 157.401 263.286 192.786 283.524 192.832" stroke="#BEF264" stroke-width="3" stroke-miterlimit="10" stroke-linecap="round" stroke-linejoin="round"/>
</svg>
